{"title":"Pirates of the Caribbean The Curse of the Black Pearl(2003)MPEG","uid":13810788,"size":1425458041,"categoryP":"video","categoryS":"movies","magnet":"?xt=urn:btih:94f205a2617f1732f6705da68dd1b73defdb9e93&amp;dn=Pirates+of+the+Caribbean+The+Curse+of+the+Black+Pearl%282003%29MPEG+&amp;tr=udp%3A%2F%2Ftracker.leechers-paradise.org%3A6969&amp;tr=udp%3A%2F%2Fzer0day.ch%3A1337&amp;tr=udp%3A%2F%2Fopen.demonii.com%3A1337&amp;tr=udp%3A%2F%2Ftracker.coppersurfer.tk%3A6969&amp;tr=udp%3A%2F%2Fexodus.desync.com%3A6969","seeders":0,"leechers":1,"uploader":"dascuba","files":1,"time":1457499877,"description":"Pirates of the Caribbean: The Curse of the Black Pearl (2003)\r\nPG-13 | 2h 23min | Action, Adventure, Fantasy | 9 July 2003 (USA)\r\nBlacksmith Will Turner teams up with eccentric pirate &quot;Captain&quot; Jack Sparrow to save his love, the governor's daughter, from Jack's former pirate allies, who are now undead.\r\nDirector: Gore Verbinski\r\nWriters: Ted Elliott (screen story), Terry Rossio (screen story) | 4 more credits »\r\nStars: Johnny Depp, Geoffrey Rush, Orlando Bloom\r\n\r\nGeneral\r\nComplete name                            : The Curse of the Black PearlPIRATES_OF_THE_CARRIBEAN_Title1.mp4\r\nFormat                                   : MPEG-4\r\nFormat profile                           : Base Media\r\nCodec ID                                 : isom\r\nFile size                                : 1.33 GiB\r\nDuration                                 : 2h 23mn\r\nOverall bit rate                         : 1 329 Kbps\r\nMovie name                               : PIRATES_OF_THE_CARRIBEAN\r\nGenre                                    : Adventure\r\nWriting application                      : Lavf54.6.100\r\n\r\nVideo\r\nID                                       : 1\r\nFormat                                   : AVC\r\nFormat/Info                              : Advanced Video Codec\r\nFormat profile                           :   \r\nFormat settings, CABAC                   : No\r\nFormat settings, ReFrames                : 6 frames\r\nCodec ID                                 : avc1\r\nCodec ID/Info                            : Advanced Video Coding\r\nDuration                                 : 2h 23mn\r\nBit rate                                 : 1 194 Kbps\r\nWidth                                    : 720 pixels\r\nHeight                                   : 404 pixels\r\nDisplay aspect ratio                     : 16:9\r\nFrame rate mode                          : Constant\r\nFrame rate                               : 29.970 fps\r\nColor space                              : YUV\r\nChroma subsampling                       : 4:2:0\r\nBit depth                                : 8 bits\r\nScan type                                : Progressive\r\nBits/(Pixel*Frame)                       : 0.137\r\nStream size                              : 1.19 GiB (90%)\r\n\r\nAudio\r\nID                                       : 2\r\nFormat                                   : AAC\r\nFormat/Info                              : Advanced Audio Codec\r\nFormat profile                           : LC\r\nCodec ID                                 : 40\r\nDuration                                 : 2h 23mn\r\nBit rate mode                            : Constant\r\nBit rate                                 : 128 Kbps\r\nChannel(s)                               : 2 channels\r\nChannel positions                        : Front: L R\r\nSampling rate                            : 44.1 KHz\r\nCompression mode                         : Lossy\r\nStream size                              : 131 MiB (10%)","torrent":{"xt":"urn:btih:94f205a2617f1732f6705da68dd1b73defdb9e93","amp;dn":"Pirates+of+the+Caribbean+The+Curse+of+the+Black+Pearl%282003%29MPEG+","amp;tr":["udp%3A%2F%2Ftracker.leechers-paradise.org%3A6969","udp%3A%2F%2Fzer0day.ch%3A1337","udp%3A%2F%2Fopen.demonii.com%3A1337","udp%3A%2F%2Ftracker.coppersurfer.tk%3A6969","udp%3A%2F%2Fexodus.desync.com%3A6969"],"infoHash":"94f205a2617f1732f6705da68dd1b73defdb9e93","infoHashBuffer":{"type":"Buffer","data":[148,242,5,162,97,127,23,50,246,112,93,166,141,209,183,61,239,219,158,147]},"announce":[],"urlList":[]}}